<?xml version="1.0" encoding="utf-8"?>
<!-- Generator: Adobe Illustrator 26.0.2, SVG Export Plug-In . SVG Version: 6.00 Build 0)  -->
<svg version="1.1" id="Layer_1" xmlns="http://www.w3.org/2000/svg" xmlns:xlink="http://www.w3.org/1999/xlink" x="0px" y="0px"
	 viewBox="0 0 1024 1024" style="enable-background:new 0 0 1024 1024;" xml:space="preserve">
<style type="text/css">
	.st0{fill:url(#SVGID_1_);}
</style>
<linearGradient id="SVGID_1_" gradientUnits="userSpaceOnUse" x1="909.0723" y1="-176.0898" x2="209.4624" y2="1035.6702">
	<stop  offset="0" style="stop-color:#2D57A4"/>
	<stop  offset="0.2374" style="stop-color:#774ADF"/>
	<stop  offset="0.3162" style="stop-color:#9248BE"/>
	<stop  offset="0.4266" style="stop-color:#B24697"/>
	<stop  offset="0.528" style="stop-color:#C9447A"/>
	<stop  offset="0.616" style="stop-color:#D74369"/>
	<stop  offset="0.6809" style="stop-color:#DC4363"/>
	<stop  offset="0.7393" style="stop-color:#DE545E"/>
	<stop  offset="0.8546" style="stop-color:#E58052"/>
	<stop  offset="1" style="stop-color:#EEBF41"/>
</linearGradient>
<path class="st0" d="M1023.9,105.8c0.1-7.7-0.4-15.5-1.5-23.2c-6.8-41.8-43.8-81.2-100.8-82.8h-14.2c-161.3,0.9-322.6,0.4-484,0.4
	c-8.1-0.2-16.2,0.4-24.2,1.6c-49.2,9.2-82.1,48.8-82.4,99.7c-0.4,67.6-0.1,135.3-0.1,202.9v12.4H303c-66.3,0-132.6-0.2-198.9,0
	c-61.7,0.3-104,42.3-104,103.9C0,587.1,0,753.5,0.1,919.9c0.1,61.6,42.1,104,103.8,104.1c166.4,0.2,332.8,0.2,499.2,0
	c62.2-0.1,104-42.4,104.1-104.8c0-65.9,0-131.9,0-197.8v-14l13-0.3c65.3,0.1,130.5,0.1,195.8,0c8.2,0.2,16.3-0.2,24.3-1.4
	c51.2-9.1,83.6-49.3,83.6-103.8C1024,436.6,1024,271.2,1023.9,105.8z M633.4,916.3c0,24.6-9.1,33.8-33.5,33.8H353.3l-245.6,0.1
	c-24.7,0-33.8-9-33.8-33.5V424.6c0-24.7,9-33.8,33.5-33.8h492.2c24.7,0,33.8,9,33.8,33.5V916.3z M950.1,599.7
	c0,24.5-9.2,33.6-33.7,33.6H707.2v-12.7c-0.1-67.3,0.2-134.6-0.1-201.9c-0.2-51.6-33.1-91.5-82.6-100.5c-8.4-1.3-16.9-1.8-25.3-1.5
	c-65,0-129.9,0-194.8,0h-13.8l0-12.2c0-65.6,0-131.2,0-196.8c0-24.6,9.2-33.6,33.8-33.6h492c24.6,0,33.7,9.1,33.7,33.6
	C950.1,271.7,950.1,435.7,950.1,599.7z"/>
</svg>
