<?xml version="1.0" encoding="utf-8"?>
 <!-- Generator: Adobe Illustrator 26.0.2, SVG Export Plug-In . SVG Version: 6.00 Build 0)  -->
 <svg version="1.1" id="Layer_1" xmlns="http://www.w3.org/2000/svg" xmlns:xlink="http://www.w3.org/1999/xlink" x="0px" y="0px"
 	 viewBox="0 0 2000 531.9" style="enable-background:new 0 0 2000 531.9;" xml:space="preserve">
 <style type="text/css">
 	.st0{fill:url(#SVGID_1_);}
 	.st1{fill:url(#SVGID_00000168088052263619665740000016730360812638381189_);}
 </style>
 <linearGradient id="SVGID_1_" gradientUnits="userSpaceOnUse" x1="437.8614" y1="-31.9078" x2="93.736" y2="564.1349">
 	<stop  offset="0" style="stop-color:#2D57A4"/>
 	<stop  offset="0.2374" style="stop-color:#774ADF"/>
 	<stop  offset="0.3162" style="stop-color:#9248BE"/>
 	<stop  offset="0.4266" style="stop-color:#B24697"/>
 	<stop  offset="0.528" style="stop-color:#C9447A"/>
 	<stop  offset="0.616" style="stop-color:#D74369"/>
 	<stop  offset="0.6809" style="stop-color:#DC4363"/>
 	<stop  offset="0.7393" style="stop-color:#DE545E"/>
 	<stop  offset="0.8546" style="stop-color:#E58052"/>
 	<stop  offset="1" style="stop-color:#EEBF41"/>
 </linearGradient>
 <path class="st0" d="M367.3,367.4v7.3c0,34.2,0,68.5,0,102.7c-0.1,32.4-21.7,54.4-54.1,54.4c-86.4,0.1-172.8,0.1-259.2,0
 	c-32,0-53.9-22-53.9-54.1C0,391.4,0,304.9,0.1,218.5c0-32,22-53.8,54-53.9c34.4-0.1,68.9,0,103.3,0h7.1v-6.4
 	c0-35.1-0.1-70.3,0.1-105.4c0.1-26.5,17.2-47,42.8-51.8c4.2-0.6,8.4-0.9,12.6-0.8c85.5,0,171,0.3,256.6-0.2
 	c30.8-0.2,50.8,20.8,54.4,43c0.6,4,0.8,8,0.8,12.1c0,85.9,0,171.8,0,257.7c0,28.3-16.8,49.2-43.4,53.9c-4.2,0.6-8.4,0.8-12.6,0.7
 	c-33.9,0.1-67.8,0.1-101.7,0L367.3,367.4z M183.5,493.5h128c12.7,0,17.4-4.8,17.4-17.6V220.4c0-12.7-4.7-17.4-17.6-17.4H55.8
 	c-12.7,0-17.4,4.7-17.4,17.5v255.6c0,12.7,4.7,17.4,17.5,17.4H183.5z M202.9,164.6h7.2c33.7,0,67.4,0,101.1,0
 	c4.4-0.1,8.8,0.1,13.1,0.8c25.7,4.7,42.8,25.4,42.9,52.2c0.2,34.9,0,69.9,0,104.8v6.6h108.6c12.7,0,17.5-4.7,17.5-17.5
 	c0-85.2,0-170.3,0-255.5c0-12.7-4.7-17.5-17.5-17.5H220.4c-12.8,0-17.5,4.7-17.5,17.4c0,34.1,0,68.1,0,102.2V164.6z"/>
 <linearGradient id="SVGID_00000135687122158264268630000006147447775598097076_" gradientUnits="userSpaceOnUse" x1="2124.4058" y1="-128.9223" x2="628.5558" y2="672.2429">
 	<stop  offset="2.345312e-02" style="stop-color:#2D57A4"/>
 	<stop  offset="0.2374" style="stop-color:#774ADF"/>
 	<stop  offset="0.3162" style="stop-color:#9248BE"/>
 	<stop  offset="0.4266" style="stop-color:#B24697"/>
 	<stop  offset="0.528" style="stop-color:#C9447A"/>
 	<stop  offset="0.616" style="stop-color:#D74369"/>
 	<stop  offset="0.6809" style="stop-color:#DC4363"/>
 	<stop  offset="0.7393" style="stop-color:#DE545E"/>
 	<stop  offset="0.8546" style="stop-color:#E58052"/>
 	<stop  offset="0.9907" style="stop-color:#EEBF41"/>
 </linearGradient>
 <path style="fill:url(#SVGID_00000135687122158264268630000006147447775598097076_);" d="M1029,370.5c2.2,3.7,1.6,8.4-1.5,11.4
 	c-20.9,20.9-56.3,42.3-112.6,42.3c-93.9,0-164.8-65.8-164.8-166.2S822.5,91.7,914.9,91.7c54.6,0,89.6,20.7,108.9,37.5
 	c3.3,2.8,4.2,7.6,2.1,11.4l-9.8,18.7c-2.4,4.6-8.1,6.3-12.6,3.9c-0.6-0.3-1.2-0.7-1.7-1.2c-16.7-14.5-47.8-30.6-85-30.6
 	c-69.6,0-120,50-120,125.6s50.9,125.6,120,125.6c37.4,0,67.1-12.6,88-31.2c3.9-3.4,9.8-3,13.2,0.8c0.4,0.4,0.7,0.9,1,1.4L1029,370.5
 	z M1134.8,418.6h-25.7c-5.2,0-9.3-4.2-9.3-9.3V105.7c0-5.2,4.2-9.3,9.3-9.3h25.7c5.2,0,9.3,4.2,9.3,9.3v303.5
 	C1144.2,414.4,1140,418.6,1134.8,418.6z M1334.2,423.7c-66.3,0-117.7-46.2-117.7-115.3c0-68.6,51.4-115.8,117.7-115.8
 	c65.8,0,117.2,47.2,117.2,115.8C1451.4,377.5,1400,423.7,1334.2,423.7z M1334.2,229c-44.8,0-72.4,34.6-72.4,78
 	c0,43.9,27.5,78.4,72.4,78.4c44.4,0,71.9-34.6,71.9-78.4C1406.1,263.5,1378.6,229,1334.2,229z M1704.9,418.6h-26.1
 	c-5.2,0-9.3-4.2-9.3-9.3V294.8c0-37.4-6.5-65.4-46.2-65.4c-41.6,0-57,35-57,77.5v102.3c0,5.2-4.2,9.3-9.3,9.3h-26.1
 	c-5.2,0-9.3-4.2-9.3-9.3V206.1c0-5.2,4.2-9.3,9.3-9.3h26c5.2,0,9.3,4.2,9.3,9.3v0.1l-0.3,25.6h1.4c11.7-21.9,35.5-39.2,67.7-39.2
 	c63,0,79.4,41.6,79.4,94.8v121.9C1714.3,414.4,1710.1,418.6,1704.9,418.6z M1990.2,318.2h-162.5c2.3,43.9,30.4,70.5,71.4,70.5
 	c31.5,0,54.5-12.9,65.9-20.5c4.2-2.8,9.8-1.8,12.7,2.3l8.4,11.6c2.9,4,2.2,9.5-1.6,12.6c-11.9,10.1-40.5,29.1-91.1,29.1
 	c-65.8,0-111.1-45.8-111.1-116.3c0-70,50.9-114.9,112.5-114.9s105.1,43.9,105.1,106c0,3.5-0.3,7.6-0.5,11.1
 	C1999.1,314.4,1995,318.1,1990.2,318.2z M1957.5,288.3c-0.5-24.7-19.1-63.5-64-63.5c-44.4,0-64,36.9-65.4,63.5H1957.5z"/>
 </svg>
